<svg xmlns="http://www.w3.org/2000/svg" xmlns:xlink="http://www.w3.org/1999/xlink" version="1.1" viewBox="3.43 0 25.13 32">
<g id="surface1">
<path style=" stroke:none;fill-rule:nonzero;fill:rgb(100%,100%,100%);fill-opacity:1;" d="M 5.800781 31.210938 C 5.832031 31.65625 6.203125 32 6.648438 32 L 25.351562 32 C 25.796875 32 26.167969 31.65625 26.199219 31.210938 L 28.5625 0.921875 C 28.582031 0.683594 28.5 0.449219 28.339844 0.273438 C 28.175781 0.0976562 27.949219 0 27.710938 0 L 4.289062 0 C 4.050781 0 3.824219 0.0976562 3.660156 0.273438 C 3.5 0.449219 3.417969 0.683594 3.4375 0.921875 Z M 24.558594 30.292969 L 7.441406 30.292969 L 6.203125 14.449219 C 6.722656 14.71875 7.449219 15.011719 8.363281 15.195312 C 10.121094 15.550781 12.992188 15.566406 16.671875 13.613281 C 19.207031 12.269531 21.566406 11.890625 23.6875 12.488281 C 24.753906 12.789062 25.496094 13.277344 25.863281 13.566406 Z M 26.789062 1.707031 L 26.015625 11.621094 C 25.546875 11.355469 24.960938 11.085938 24.261719 10.878906 C 22.484375 10.351562 19.585938 10.136719 15.875 12.105469 C 13.355469 13.441406 10.902344 13.980469 8.804688 13.542969 C 7.230469 13.214844 6.144531 12.433594 6.042969 12.375 L 5.210938 1.707031 Z M 26.789062 1.707031 "/>
</g>
</svg>