<?xml version="1.0" encoding="UTF-8"?>
<svg xmlns="http://www.w3.org/2000/svg" xmlns:xlink="http://www.w3.org/1999/xlink" width="900px" height="900px" viewBox="0 0 900 900" version="1.1">
<g id="surface1">
<path style=" stroke:none;fill-rule:nonzero;fill:rgb(100%,100%,100%);fill-opacity:1;" d="M 163.101562 877.859375 C 164.078125 890.359375 174.503906 900 187.039062 900 L 712.964844 900 C 725.5 900 735.925781 890.355469 736.898438 877.859375 L 803.328125 25.875 C 803.851562 19.203125 801.5625 12.617188 797.015625 7.707031 C 792.46875 2.792969 786.085938 0 779.390625 0 L 120.609375 0 C 113.914062 0 107.527344 2.792969 102.984375 7.707031 C 98.4375 12.617188 96.152344 19.203125 96.671875 25.875 Z M 690.757812 851.984375 L 209.246094 851.984375 L 174.503906 406.417969 C 189.09375 413.929688 209.464844 422.214844 235.171875 427.402344 C 284.683594 437.394531 365.433594 437.777344 468.933594 382.859375 C 540.195312 345.050781 606.5625 334.414062 666.203125 351.261719 C 696.222656 359.742188 717.039062 373.464844 727.433594 381.527344 Z M 753.441406 48.015625 L 731.695312 326.894531 C 718.527344 319.414062 702.019531 311.785156 682.351562 305.945312 C 632.351562 291.109375 550.828125 285.046875 446.429688 340.441406 C 375.644531 378.003906 306.640625 393.210938 247.578125 380.898438 C 203.320312 371.671875 172.800781 349.6875 169.960938 348.101562 L 146.5625 48.015625 Z M 753.441406 48.015625 "/>
</g>
</svg>
